<mxfile host="app.diagrams.net" modified="2024-01-30T13:27:13.292Z" agent="Mozilla/5.0 (X11; Linux x86_64; rv:121.0) Gecko/20100101 Firefox/121.0" etag="-bF3PUuql91_sZkrRgCd" version="23.0.2" type="device">
  <diagram name="Page-1" id="Lqo6RBezJLHvupXPatZ3">
    <mxGraphModel dx="4037" dy="1787" grid="1" gridSize="10" guides="1" tooltips="1" connect="1" arrows="1" fold="1" page="1" pageScale="1" pageWidth="850" pageHeight="1100" math="1" shadow="0">
      <root>
        <mxCell id="0" />
        <mxCell id="1" parent="0" />
        <mxCell id="kAC32boEKr8LLjx1eOd2-687" value="" style="rounded=0;whiteSpace=wrap;html=1;fillColor=#d5e8d4;strokeColor=#82b366;" vertex="1" parent="1">
          <mxGeometry x="10" y="40" width="1360" height="840" as="geometry" />
        </mxCell>
        <mxCell id="kAC32boEKr8LLjx1eOd2-146" value="" style="rounded=0;whiteSpace=wrap;html=1;" vertex="1" parent="1">
          <mxGeometry x="-240" y="120" width="160" height="160" as="geometry" />
        </mxCell>
        <mxCell id="kAC32boEKr8LLjx1eOd2-147" value="" style="rounded=0;whiteSpace=wrap;html=1;fillColor=#FFFFFF;" vertex="1" parent="1">
          <mxGeometry x="-240" y="120" width="40" height="40" as="geometry" />
        </mxCell>
        <mxCell id="kAC32boEKr8LLjx1eOd2-148" value="" style="rounded=0;whiteSpace=wrap;html=1;" vertex="1" parent="1">
          <mxGeometry x="-200" y="120" width="40" height="40" as="geometry" />
        </mxCell>
        <mxCell id="kAC32boEKr8LLjx1eOd2-149" value="" style="rounded=0;whiteSpace=wrap;html=1;" vertex="1" parent="1">
          <mxGeometry x="-160" y="120" width="40" height="40" as="geometry" />
        </mxCell>
        <mxCell id="kAC32boEKr8LLjx1eOd2-150" value="" style="rounded=0;whiteSpace=wrap;html=1;" vertex="1" parent="1">
          <mxGeometry x="-120" y="120" width="40" height="40" as="geometry" />
        </mxCell>
        <mxCell id="kAC32boEKr8LLjx1eOd2-151" value="" style="rounded=0;whiteSpace=wrap;html=1;fillColor=#000000;fillStyle=dots;" vertex="1" parent="1">
          <mxGeometry x="-240" y="160" width="40" height="40" as="geometry" />
        </mxCell>
        <mxCell id="kAC32boEKr8LLjx1eOd2-152" value="" style="rounded=0;whiteSpace=wrap;html=1;" vertex="1" parent="1">
          <mxGeometry x="-200" y="160" width="40" height="40" as="geometry" />
        </mxCell>
        <mxCell id="kAC32boEKr8LLjx1eOd2-153" value="" style="rounded=0;whiteSpace=wrap;html=1;fillColor=#FFFFFF;" vertex="1" parent="1">
          <mxGeometry x="-160" y="160" width="40" height="40" as="geometry" />
        </mxCell>
        <mxCell id="kAC32boEKr8LLjx1eOd2-154" value="" style="rounded=0;whiteSpace=wrap;html=1;fillColor=#000000;fillStyle=dots;" vertex="1" parent="1">
          <mxGeometry x="-120" y="160" width="40" height="40" as="geometry" />
        </mxCell>
        <mxCell id="kAC32boEKr8LLjx1eOd2-155" value="" style="rounded=0;whiteSpace=wrap;html=1;fillColor=#000000;fillStyle=dots;" vertex="1" parent="1">
          <mxGeometry x="-240" y="200" width="40" height="40" as="geometry" />
        </mxCell>
        <mxCell id="kAC32boEKr8LLjx1eOd2-156" value="" style="rounded=0;whiteSpace=wrap;html=1;" vertex="1" parent="1">
          <mxGeometry x="-200" y="200" width="40" height="40" as="geometry" />
        </mxCell>
        <mxCell id="kAC32boEKr8LLjx1eOd2-157" value="" style="rounded=0;whiteSpace=wrap;html=1;fillColor=#FFFFFF;" vertex="1" parent="1">
          <mxGeometry x="-160" y="200" width="40" height="40" as="geometry" />
        </mxCell>
        <mxCell id="kAC32boEKr8LLjx1eOd2-158" value="" style="rounded=0;whiteSpace=wrap;html=1;fillColor=#000000;fillStyle=dots;" vertex="1" parent="1">
          <mxGeometry x="-120" y="200" width="40" height="40" as="geometry" />
        </mxCell>
        <mxCell id="kAC32boEKr8LLjx1eOd2-159" value="" style="rounded=0;whiteSpace=wrap;html=1;fillColor=#FFFFFF;" vertex="1" parent="1">
          <mxGeometry x="-240" y="240" width="40" height="40" as="geometry" />
        </mxCell>
        <mxCell id="kAC32boEKr8LLjx1eOd2-160" value="" style="rounded=0;whiteSpace=wrap;html=1;fillColor=#000000;fillStyle=dots;" vertex="1" parent="1">
          <mxGeometry x="-200" y="240" width="40" height="40" as="geometry" />
        </mxCell>
        <mxCell id="kAC32boEKr8LLjx1eOd2-161" value="" style="rounded=0;whiteSpace=wrap;html=1;fillColor=#000000;fillStyle=dots;" vertex="1" parent="1">
          <mxGeometry x="-160" y="240" width="40" height="40" as="geometry" />
        </mxCell>
        <mxCell id="kAC32boEKr8LLjx1eOd2-162" value="" style="rounded=0;whiteSpace=wrap;html=1;" vertex="1" parent="1">
          <mxGeometry x="-120" y="240" width="40" height="40" as="geometry" />
        </mxCell>
        <mxCell id="kAC32boEKr8LLjx1eOd2-164" value="SubCell" style="text;html=1;strokeColor=none;fillColor=none;align=center;verticalAlign=middle;whiteSpace=wrap;rounded=0;" vertex="1" parent="1">
          <mxGeometry x="-60" y="165" width="60" height="30" as="geometry" />
        </mxCell>
        <mxCell id="kAC32boEKr8LLjx1eOd2-165" value="" style="rounded=0;whiteSpace=wrap;html=1;" vertex="1" parent="1">
          <mxGeometry x="400" y="120" width="160" height="160" as="geometry" />
        </mxCell>
        <mxCell id="kAC32boEKr8LLjx1eOd2-166" value="" style="rounded=0;whiteSpace=wrap;html=1;fillColor=#FFFFFF;" vertex="1" parent="1">
          <mxGeometry x="400" y="120" width="40" height="40" as="geometry" />
        </mxCell>
        <mxCell id="kAC32boEKr8LLjx1eOd2-167" value="" style="rounded=0;whiteSpace=wrap;html=1;" vertex="1" parent="1">
          <mxGeometry x="440" y="120" width="40" height="40" as="geometry" />
        </mxCell>
        <mxCell id="kAC32boEKr8LLjx1eOd2-168" value="" style="rounded=0;whiteSpace=wrap;html=1;" vertex="1" parent="1">
          <mxGeometry x="480" y="120" width="40" height="40" as="geometry" />
        </mxCell>
        <mxCell id="kAC32boEKr8LLjx1eOd2-169" value="" style="rounded=0;whiteSpace=wrap;html=1;fillColor=#FFFFFF;fillStyle=dots;" vertex="1" parent="1">
          <mxGeometry x="520" y="120" width="40" height="40" as="geometry" />
        </mxCell>
        <mxCell id="kAC32boEKr8LLjx1eOd2-170" value="" style="rounded=0;whiteSpace=wrap;html=1;fillColor=#000000;fillStyle=dots;" vertex="1" parent="1">
          <mxGeometry x="400" y="160" width="40" height="40" as="geometry" />
        </mxCell>
        <mxCell id="kAC32boEKr8LLjx1eOd2-171" value="" style="rounded=0;whiteSpace=wrap;html=1;fillColor=#FFFFFF;fillStyle=dots;" vertex="1" parent="1">
          <mxGeometry x="440" y="160" width="40" height="40" as="geometry" />
        </mxCell>
        <mxCell id="kAC32boEKr8LLjx1eOd2-172" value="" style="rounded=0;whiteSpace=wrap;html=1;fillColor=#FFFFFF;" vertex="1" parent="1">
          <mxGeometry x="480" y="160" width="40" height="40" as="geometry" />
        </mxCell>
        <mxCell id="kAC32boEKr8LLjx1eOd2-173" value="" style="rounded=0;whiteSpace=wrap;html=1;fillColor=#000000;fillStyle=dots;" vertex="1" parent="1">
          <mxGeometry x="520" y="160" width="40" height="40" as="geometry" />
        </mxCell>
        <mxCell id="kAC32boEKr8LLjx1eOd2-174" value="" style="rounded=0;whiteSpace=wrap;html=1;fillColor=#000000;fillStyle=dots;" vertex="1" parent="1">
          <mxGeometry x="400" y="200" width="40" height="40" as="geometry" />
        </mxCell>
        <mxCell id="kAC32boEKr8LLjx1eOd2-175" value="" style="rounded=0;whiteSpace=wrap;html=1;" vertex="1" parent="1">
          <mxGeometry x="440" y="200" width="40" height="40" as="geometry" />
        </mxCell>
        <mxCell id="kAC32boEKr8LLjx1eOd2-176" value="" style="rounded=0;whiteSpace=wrap;html=1;fillColor=#FFFFFF;" vertex="1" parent="1">
          <mxGeometry x="480" y="200" width="40" height="40" as="geometry" />
        </mxCell>
        <mxCell id="kAC32boEKr8LLjx1eOd2-177" value="" style="rounded=0;whiteSpace=wrap;html=1;fillColor=#000000;fillStyle=dots;" vertex="1" parent="1">
          <mxGeometry x="520" y="200" width="40" height="40" as="geometry" />
        </mxCell>
        <mxCell id="kAC32boEKr8LLjx1eOd2-178" value="" style="rounded=0;whiteSpace=wrap;html=1;fillColor=#FFFFFF;" vertex="1" parent="1">
          <mxGeometry x="400" y="240" width="40" height="40" as="geometry" />
        </mxCell>
        <mxCell id="kAC32boEKr8LLjx1eOd2-179" value="" style="rounded=0;whiteSpace=wrap;html=1;fillColor=#000000;fillStyle=dots;" vertex="1" parent="1">
          <mxGeometry x="440" y="240" width="40" height="40" as="geometry" />
        </mxCell>
        <mxCell id="kAC32boEKr8LLjx1eOd2-180" value="" style="rounded=0;whiteSpace=wrap;html=1;fillColor=#000000;fillStyle=dots;" vertex="1" parent="1">
          <mxGeometry x="480" y="240" width="40" height="40" as="geometry" />
        </mxCell>
        <mxCell id="kAC32boEKr8LLjx1eOd2-181" value="" style="rounded=0;whiteSpace=wrap;html=1;" vertex="1" parent="1">
          <mxGeometry x="520" y="240" width="40" height="40" as="geometry" />
        </mxCell>
        <mxCell id="kAC32boEKr8LLjx1eOd2-182" value="" style="endArrow=classic;html=1;rounded=0;exitX=1;exitY=0;exitDx=0;exitDy=0;entryX=0;entryY=0;entryDx=0;entryDy=0;" edge="1" parent="1" source="kAC32boEKr8LLjx1eOd2-177" target="kAC32boEKr8LLjx1eOd2-193">
          <mxGeometry width="50" height="50" relative="1" as="geometry">
            <mxPoint x="620" y="280" as="sourcePoint" />
            <mxPoint x="640" y="320" as="targetPoint" />
          </mxGeometry>
        </mxCell>
        <mxCell id="kAC32boEKr8LLjx1eOd2-183" value="ShuffleCell" style="text;html=1;strokeColor=none;fillColor=none;align=center;verticalAlign=middle;whiteSpace=wrap;rounded=0;" vertex="1" parent="1">
          <mxGeometry x="590" y="165" width="60" height="30" as="geometry" />
        </mxCell>
        <mxCell id="kAC32boEKr8LLjx1eOd2-184" value="" style="rounded=0;whiteSpace=wrap;html=1;" vertex="1" parent="1">
          <mxGeometry x="680" y="120" width="160" height="160" as="geometry" />
        </mxCell>
        <mxCell id="kAC32boEKr8LLjx1eOd2-185" value="" style="rounded=0;whiteSpace=wrap;html=1;strokeColor=default;fillColor=#FFFFFF;" vertex="1" parent="1">
          <mxGeometry x="680" y="120" width="40" height="40" as="geometry" />
        </mxCell>
        <mxCell id="kAC32boEKr8LLjx1eOd2-186" value="" style="rounded=0;whiteSpace=wrap;html=1;fillColor=#000000;gradientColor=none;fillStyle=dots;" vertex="1" parent="1">
          <mxGeometry x="720" y="120" width="40" height="40" as="geometry" />
        </mxCell>
        <mxCell id="kAC32boEKr8LLjx1eOd2-187" value="" style="rounded=0;whiteSpace=wrap;html=1;fillColor=#FFFFFF;" vertex="1" parent="1">
          <mxGeometry x="760" y="120" width="40" height="40" as="geometry" />
        </mxCell>
        <mxCell id="kAC32boEKr8LLjx1eOd2-188" value="" style="rounded=0;whiteSpace=wrap;html=1;fillColor=#000000;gradientColor=none;fillStyle=dots;" vertex="1" parent="1">
          <mxGeometry x="800" y="120" width="40" height="40" as="geometry" />
        </mxCell>
        <mxCell id="kAC32boEKr8LLjx1eOd2-189" value="" style="rounded=0;whiteSpace=wrap;html=1;fillColor=#FFFFFF;" vertex="1" parent="1">
          <mxGeometry x="680" y="160" width="40" height="40" as="geometry" />
        </mxCell>
        <mxCell id="kAC32boEKr8LLjx1eOd2-190" value="" style="rounded=0;whiteSpace=wrap;html=1;" vertex="1" parent="1">
          <mxGeometry x="720" y="160" width="40" height="40" as="geometry" />
        </mxCell>
        <mxCell id="kAC32boEKr8LLjx1eOd2-191" value="" style="rounded=0;whiteSpace=wrap;html=1;" vertex="1" parent="1">
          <mxGeometry x="760" y="160" width="40" height="40" as="geometry" />
        </mxCell>
        <mxCell id="kAC32boEKr8LLjx1eOd2-192" value="" style="rounded=0;whiteSpace=wrap;html=1;fillColor=#000000;gradientColor=none;fillStyle=dots;" vertex="1" parent="1">
          <mxGeometry x="800" y="160" width="40" height="40" as="geometry" />
        </mxCell>
        <mxCell id="kAC32boEKr8LLjx1eOd2-193" value="" style="rounded=0;whiteSpace=wrap;html=1;" vertex="1" parent="1">
          <mxGeometry x="680" y="200" width="40" height="40" as="geometry" />
        </mxCell>
        <mxCell id="kAC32boEKr8LLjx1eOd2-194" value="" style="rounded=0;whiteSpace=wrap;html=1;fillColor=#000000;gradientColor=none;fillStyle=dots;" vertex="1" parent="1">
          <mxGeometry x="720" y="200" width="40" height="40" as="geometry" />
        </mxCell>
        <mxCell id="kAC32boEKr8LLjx1eOd2-195" value="" style="rounded=0;whiteSpace=wrap;html=1;" vertex="1" parent="1">
          <mxGeometry x="760" y="200" width="40" height="40" as="geometry" />
        </mxCell>
        <mxCell id="kAC32boEKr8LLjx1eOd2-196" value="" style="rounded=0;whiteSpace=wrap;html=1;fillColor=#000000;gradientColor=none;fillStyle=dots;" vertex="1" parent="1">
          <mxGeometry x="800" y="200" width="40" height="40" as="geometry" />
        </mxCell>
        <mxCell id="kAC32boEKr8LLjx1eOd2-197" value="" style="rounded=0;whiteSpace=wrap;html=1;" vertex="1" parent="1">
          <mxGeometry x="680" y="240" width="40" height="40" as="geometry" />
        </mxCell>
        <mxCell id="kAC32boEKr8LLjx1eOd2-198" value="" style="rounded=0;whiteSpace=wrap;html=1;fillColor=#000000;gradientColor=none;fillStyle=dots;" vertex="1" parent="1">
          <mxGeometry x="720" y="240" width="40" height="40" as="geometry" />
        </mxCell>
        <mxCell id="kAC32boEKr8LLjx1eOd2-199" value="" style="rounded=0;whiteSpace=wrap;html=1;" vertex="1" parent="1">
          <mxGeometry x="760" y="240" width="40" height="40" as="geometry" />
        </mxCell>
        <mxCell id="kAC32boEKr8LLjx1eOd2-200" value="" style="rounded=0;whiteSpace=wrap;html=1;" vertex="1" parent="1">
          <mxGeometry x="800" y="240" width="40" height="40" as="geometry" />
        </mxCell>
        <mxCell id="kAC32boEKr8LLjx1eOd2-201" value="" style="endArrow=classic;html=1;rounded=0;exitX=1;exitY=0;exitDx=0;exitDy=0;" edge="1" parent="1" source="kAC32boEKr8LLjx1eOd2-196">
          <mxGeometry width="50" height="50" relative="1" as="geometry">
            <mxPoint x="920" y="200" as="sourcePoint" />
            <mxPoint x="960" y="200" as="targetPoint" />
          </mxGeometry>
        </mxCell>
        <mxCell id="kAC32boEKr8LLjx1eOd2-202" value="MixColumn" style="text;html=1;strokeColor=none;fillColor=none;align=center;verticalAlign=middle;whiteSpace=wrap;rounded=0;" vertex="1" parent="1">
          <mxGeometry x="870" y="165" width="60" height="30" as="geometry" />
        </mxCell>
        <mxCell id="kAC32boEKr8LLjx1eOd2-255" style="edgeStyle=orthogonalEdgeStyle;rounded=0;orthogonalLoop=1;jettySize=auto;html=1;exitX=0.5;exitY=1;exitDx=0;exitDy=0;entryX=0;entryY=0;entryDx=0;entryDy=0;" edge="1" parent="1" source="kAC32boEKr8LLjx1eOd2-203">
          <mxGeometry relative="1" as="geometry">
            <mxPoint x="120" y="480" as="targetPoint" />
            <Array as="points">
              <mxPoint x="1261" y="351" />
              <mxPoint x="40" y="351" />
              <mxPoint x="40" y="480" />
            </Array>
          </mxGeometry>
        </mxCell>
        <mxCell id="kAC32boEKr8LLjx1eOd2-203" value="" style="ellipse;whiteSpace=wrap;html=1;fillColor=none;" vertex="1" parent="1">
          <mxGeometry x="1239.75" y="178.75" width="42.5" height="42.5" as="geometry" />
        </mxCell>
        <mxCell id="kAC32boEKr8LLjx1eOd2-204" value="" style="endArrow=none;html=1;rounded=0;entryX=0.5;entryY=0;entryDx=0;entryDy=0;exitX=0.5;exitY=1;exitDx=0;exitDy=0;" edge="1" parent="1" source="kAC32boEKr8LLjx1eOd2-203" target="kAC32boEKr8LLjx1eOd2-203">
          <mxGeometry width="50" height="50" relative="1" as="geometry">
            <mxPoint x="1218.75" y="260" as="sourcePoint" />
            <mxPoint x="1268.75" y="210" as="targetPoint" />
          </mxGeometry>
        </mxCell>
        <mxCell id="kAC32boEKr8LLjx1eOd2-205" value="" style="endArrow=none;html=1;rounded=0;entryX=1;entryY=0.5;entryDx=0;entryDy=0;exitX=0;exitY=0.5;exitDx=0;exitDy=0;" edge="1" parent="1" source="kAC32boEKr8LLjx1eOd2-203" target="kAC32boEKr8LLjx1eOd2-203">
          <mxGeometry width="50" height="50" relative="1" as="geometry">
            <mxPoint x="1218.75" y="260" as="sourcePoint" />
            <mxPoint x="1268.75" y="210" as="targetPoint" />
          </mxGeometry>
        </mxCell>
        <mxCell id="kAC32boEKr8LLjx1eOd2-209" value="" style="endArrow=classic;html=1;rounded=0;entryX=1;entryY=0.5;entryDx=0;entryDy=0;" edge="1" parent="1" target="kAC32boEKr8LLjx1eOd2-203">
          <mxGeometry width="50" height="50" relative="1" as="geometry">
            <mxPoint x="1400" y="200" as="sourcePoint" />
            <mxPoint x="1431" y="298.75" as="targetPoint" />
          </mxGeometry>
        </mxCell>
        <mxCell id="kAC32boEKr8LLjx1eOd2-213" value="\(K_1\)" style="text;html=1;strokeColor=none;fillColor=none;align=center;verticalAlign=middle;whiteSpace=wrap;rounded=0;fontSize=16;fontColor=#FFFFFF;" vertex="1" parent="1">
          <mxGeometry x="1400" y="185" width="60" height="30" as="geometry" />
        </mxCell>
        <mxCell id="kAC32boEKr8LLjx1eOd2-217" value="" style="endArrow=classic;html=1;rounded=0;exitX=1;exitY=0;exitDx=0;exitDy=0;entryX=0;entryY=0;entryDx=0;entryDy=0;" edge="1" parent="1" source="kAC32boEKr8LLjx1eOd2-158" target="kAC32boEKr8LLjx1eOd2-174">
          <mxGeometry width="50" height="50" relative="1" as="geometry">
            <mxPoint x="440" y="240" as="sourcePoint" />
            <mxPoint x="490" y="190" as="targetPoint" />
          </mxGeometry>
        </mxCell>
        <mxCell id="kAC32boEKr8LLjx1eOd2-219" value="" style="rounded=0;whiteSpace=wrap;html=1;" vertex="1" parent="1">
          <mxGeometry x="960" y="120" width="160" height="160" as="geometry" />
        </mxCell>
        <mxCell id="kAC32boEKr8LLjx1eOd2-220" value="" style="rounded=0;whiteSpace=wrap;html=1;strokeColor=#000000;fillColor=#FFFFFF;" vertex="1" parent="1">
          <mxGeometry x="960" y="120" width="40" height="40" as="geometry" />
        </mxCell>
        <mxCell id="kAC32boEKr8LLjx1eOd2-221" value="" style="rounded=0;whiteSpace=wrap;html=1;fillColor=#FFFFFF;" vertex="1" parent="1">
          <mxGeometry x="1000" y="120" width="40" height="40" as="geometry" />
        </mxCell>
        <mxCell id="kAC32boEKr8LLjx1eOd2-222" value="" style="rounded=0;whiteSpace=wrap;html=1;" vertex="1" parent="1">
          <mxGeometry x="1040" y="120" width="40" height="40" as="geometry" />
        </mxCell>
        <mxCell id="kAC32boEKr8LLjx1eOd2-223" value="" style="rounded=0;whiteSpace=wrap;html=1;fillColor=#FFFFFF;" vertex="1" parent="1">
          <mxGeometry x="1080" y="120" width="40" height="40" as="geometry" />
        </mxCell>
        <mxCell id="kAC32boEKr8LLjx1eOd2-224" value="" style="rounded=0;whiteSpace=wrap;html=1;fillColor=#FFFFFF;" vertex="1" parent="1">
          <mxGeometry x="960" y="160" width="40" height="40" as="geometry" />
        </mxCell>
        <mxCell id="kAC32boEKr8LLjx1eOd2-225" value="" style="rounded=0;whiteSpace=wrap;html=1;fillColor=#000000;" vertex="1" parent="1">
          <mxGeometry x="1000" y="160" width="40" height="40" as="geometry" />
        </mxCell>
        <mxCell id="kAC32boEKr8LLjx1eOd2-226" value="" style="rounded=0;whiteSpace=wrap;html=1;fillColor=#FFFFFF;" vertex="1" parent="1">
          <mxGeometry x="1040" y="160" width="40" height="40" as="geometry" />
        </mxCell>
        <mxCell id="kAC32boEKr8LLjx1eOd2-227" value="" style="rounded=0;whiteSpace=wrap;html=1;fillColor=#FFFFFF;" vertex="1" parent="1">
          <mxGeometry x="1080" y="160" width="40" height="40" as="geometry" />
        </mxCell>
        <mxCell id="kAC32boEKr8LLjx1eOd2-228" value="" style="rounded=0;whiteSpace=wrap;html=1;" vertex="1" parent="1">
          <mxGeometry x="960" y="200" width="40" height="40" as="geometry" />
        </mxCell>
        <mxCell id="kAC32boEKr8LLjx1eOd2-229" value="" style="rounded=0;whiteSpace=wrap;html=1;fillColor=#FFFFFF;" vertex="1" parent="1">
          <mxGeometry x="1000" y="200" width="40" height="40" as="geometry" />
        </mxCell>
        <mxCell id="kAC32boEKr8LLjx1eOd2-230" value="" style="rounded=0;whiteSpace=wrap;html=1;" vertex="1" parent="1">
          <mxGeometry x="1040" y="200" width="40" height="40" as="geometry" />
        </mxCell>
        <mxCell id="kAC32boEKr8LLjx1eOd2-231" value="" style="rounded=0;whiteSpace=wrap;html=1;fillColor=#FFFFFF;" vertex="1" parent="1">
          <mxGeometry x="1080" y="200" width="40" height="40" as="geometry" />
        </mxCell>
        <mxCell id="kAC32boEKr8LLjx1eOd2-232" value="" style="rounded=0;whiteSpace=wrap;html=1;" vertex="1" parent="1">
          <mxGeometry x="960" y="240" width="40" height="40" as="geometry" />
        </mxCell>
        <mxCell id="kAC32boEKr8LLjx1eOd2-233" value="" style="rounded=0;whiteSpace=wrap;html=1;fillColor=#FFFFFF;" vertex="1" parent="1">
          <mxGeometry x="1000" y="240" width="40" height="40" as="geometry" />
        </mxCell>
        <mxCell id="kAC32boEKr8LLjx1eOd2-234" value="" style="rounded=0;whiteSpace=wrap;html=1;" vertex="1" parent="1">
          <mxGeometry x="1040" y="240" width="40" height="40" as="geometry" />
        </mxCell>
        <mxCell id="kAC32boEKr8LLjx1eOd2-235" value="" style="rounded=0;whiteSpace=wrap;html=1;fillColor=#000000;" vertex="1" parent="1">
          <mxGeometry x="1080" y="240" width="40" height="40" as="geometry" />
        </mxCell>
        <mxCell id="kAC32boEKr8LLjx1eOd2-236" value="" style="endArrow=classic;html=1;rounded=0;exitX=1;exitY=0;exitDx=0;exitDy=0;" edge="1" parent="1" source="kAC32boEKr8LLjx1eOd2-231">
          <mxGeometry width="50" height="50" relative="1" as="geometry">
            <mxPoint x="1200" y="200" as="sourcePoint" />
            <mxPoint x="1240" y="200" as="targetPoint" />
          </mxGeometry>
        </mxCell>
        <mxCell id="kAC32boEKr8LLjx1eOd2-283" value="" style="rounded=0;whiteSpace=wrap;html=1;" vertex="1" parent="1">
          <mxGeometry x="120" y="400" width="160" height="160" as="geometry" />
        </mxCell>
        <mxCell id="kAC32boEKr8LLjx1eOd2-284" value="" style="rounded=0;whiteSpace=wrap;html=1;fillColor=#FFFFFF;" vertex="1" parent="1">
          <mxGeometry x="120" y="400" width="40" height="40" as="geometry" />
        </mxCell>
        <mxCell id="kAC32boEKr8LLjx1eOd2-285" value="" style="rounded=0;whiteSpace=wrap;html=1;" vertex="1" parent="1">
          <mxGeometry x="160" y="400" width="40" height="40" as="geometry" />
        </mxCell>
        <mxCell id="kAC32boEKr8LLjx1eOd2-286" value="" style="rounded=0;whiteSpace=wrap;html=1;" vertex="1" parent="1">
          <mxGeometry x="200" y="400" width="40" height="40" as="geometry" />
        </mxCell>
        <mxCell id="kAC32boEKr8LLjx1eOd2-287" value="" style="rounded=0;whiteSpace=wrap;html=1;" vertex="1" parent="1">
          <mxGeometry x="240" y="400" width="40" height="40" as="geometry" />
        </mxCell>
        <mxCell id="kAC32boEKr8LLjx1eOd2-288" value="" style="rounded=0;whiteSpace=wrap;html=1;fillColor=#FFFFFF;" vertex="1" parent="1">
          <mxGeometry x="120" y="440" width="40" height="40" as="geometry" />
        </mxCell>
        <mxCell id="kAC32boEKr8LLjx1eOd2-289" value="" style="rounded=0;whiteSpace=wrap;html=1;fillColor=#000000;" vertex="1" parent="1">
          <mxGeometry x="160" y="440" width="40" height="40" as="geometry" />
        </mxCell>
        <mxCell id="kAC32boEKr8LLjx1eOd2-290" value="" style="rounded=0;whiteSpace=wrap;html=1;fillColor=#FFFFFF;" vertex="1" parent="1">
          <mxGeometry x="200" y="440" width="40" height="40" as="geometry" />
        </mxCell>
        <mxCell id="kAC32boEKr8LLjx1eOd2-291" value="" style="rounded=0;whiteSpace=wrap;html=1;" vertex="1" parent="1">
          <mxGeometry x="240" y="440" width="40" height="40" as="geometry" />
        </mxCell>
        <mxCell id="kAC32boEKr8LLjx1eOd2-292" value="" style="rounded=0;whiteSpace=wrap;html=1;fillColor=#FFFFFF;" vertex="1" parent="1">
          <mxGeometry x="120" y="480" width="40" height="40" as="geometry" />
        </mxCell>
        <mxCell id="kAC32boEKr8LLjx1eOd2-293" value="" style="rounded=0;whiteSpace=wrap;html=1;" vertex="1" parent="1">
          <mxGeometry x="160" y="480" width="40" height="40" as="geometry" />
        </mxCell>
        <mxCell id="kAC32boEKr8LLjx1eOd2-294" value="" style="rounded=0;whiteSpace=wrap;html=1;fillColor=#FFFFFF;" vertex="1" parent="1">
          <mxGeometry x="200" y="480" width="40" height="40" as="geometry" />
        </mxCell>
        <mxCell id="kAC32boEKr8LLjx1eOd2-295" value="" style="rounded=0;whiteSpace=wrap;html=1;fillColor=#FFFFFF;" vertex="1" parent="1">
          <mxGeometry x="240" y="480" width="40" height="40" as="geometry" />
        </mxCell>
        <mxCell id="kAC32boEKr8LLjx1eOd2-296" value="" style="rounded=0;whiteSpace=wrap;html=1;fillColor=#FFFFFF;" vertex="1" parent="1">
          <mxGeometry x="120" y="520" width="40" height="40" as="geometry" />
        </mxCell>
        <mxCell id="kAC32boEKr8LLjx1eOd2-297" value="" style="rounded=0;whiteSpace=wrap;html=1;fillColor=#FFFFFF;" vertex="1" parent="1">
          <mxGeometry x="160" y="520" width="40" height="40" as="geometry" />
        </mxCell>
        <mxCell id="kAC32boEKr8LLjx1eOd2-298" value="" style="rounded=0;whiteSpace=wrap;html=1;" vertex="1" parent="1">
          <mxGeometry x="200" y="520" width="40" height="40" as="geometry" />
        </mxCell>
        <mxCell id="kAC32boEKr8LLjx1eOd2-299" value="" style="rounded=0;whiteSpace=wrap;html=1;fillColor=#000000;" vertex="1" parent="1">
          <mxGeometry x="240" y="520" width="40" height="40" as="geometry" />
        </mxCell>
        <mxCell id="kAC32boEKr8LLjx1eOd2-300" value="SubCell" style="text;html=1;strokeColor=none;fillColor=none;align=center;verticalAlign=middle;whiteSpace=wrap;rounded=0;" vertex="1" parent="1">
          <mxGeometry x="310" y="445" width="60" height="30" as="geometry" />
        </mxCell>
        <mxCell id="kAC32boEKr8LLjx1eOd2-301" value="" style="rounded=0;whiteSpace=wrap;html=1;" vertex="1" parent="1">
          <mxGeometry x="400" y="400" width="160" height="160" as="geometry" />
        </mxCell>
        <mxCell id="kAC32boEKr8LLjx1eOd2-302" value="" style="rounded=0;whiteSpace=wrap;html=1;fillColor=#FFFFFF;" vertex="1" parent="1">
          <mxGeometry x="400" y="400" width="40" height="40" as="geometry" />
        </mxCell>
        <mxCell id="kAC32boEKr8LLjx1eOd2-303" value="" style="rounded=0;whiteSpace=wrap;html=1;" vertex="1" parent="1">
          <mxGeometry x="440" y="400" width="40" height="40" as="geometry" />
        </mxCell>
        <mxCell id="kAC32boEKr8LLjx1eOd2-304" value="" style="rounded=0;whiteSpace=wrap;html=1;" vertex="1" parent="1">
          <mxGeometry x="480" y="400" width="40" height="40" as="geometry" />
        </mxCell>
        <mxCell id="kAC32boEKr8LLjx1eOd2-305" value="" style="rounded=0;whiteSpace=wrap;html=1;" vertex="1" parent="1">
          <mxGeometry x="520" y="400" width="40" height="40" as="geometry" />
        </mxCell>
        <mxCell id="kAC32boEKr8LLjx1eOd2-306" value="" style="rounded=0;whiteSpace=wrap;html=1;fillColor=#FFFFFF;" vertex="1" parent="1">
          <mxGeometry x="400" y="440" width="40" height="40" as="geometry" />
        </mxCell>
        <mxCell id="kAC32boEKr8LLjx1eOd2-307" value="" style="rounded=0;whiteSpace=wrap;html=1;fillColor=#000000;" vertex="1" parent="1">
          <mxGeometry x="440" y="440" width="40" height="40" as="geometry" />
        </mxCell>
        <mxCell id="kAC32boEKr8LLjx1eOd2-308" value="" style="rounded=0;whiteSpace=wrap;html=1;fillColor=#FFFFFF;" vertex="1" parent="1">
          <mxGeometry x="480" y="440" width="40" height="40" as="geometry" />
        </mxCell>
        <mxCell id="kAC32boEKr8LLjx1eOd2-309" value="" style="rounded=0;whiteSpace=wrap;html=1;" vertex="1" parent="1">
          <mxGeometry x="520" y="440" width="40" height="40" as="geometry" />
        </mxCell>
        <mxCell id="kAC32boEKr8LLjx1eOd2-310" value="" style="rounded=0;whiteSpace=wrap;html=1;fillColor=#FFFFFF;" vertex="1" parent="1">
          <mxGeometry x="400" y="480" width="40" height="40" as="geometry" />
        </mxCell>
        <mxCell id="kAC32boEKr8LLjx1eOd2-311" value="" style="rounded=0;whiteSpace=wrap;html=1;" vertex="1" parent="1">
          <mxGeometry x="440" y="480" width="40" height="40" as="geometry" />
        </mxCell>
        <mxCell id="kAC32boEKr8LLjx1eOd2-312" value="" style="rounded=0;whiteSpace=wrap;html=1;fillColor=#FFFFFF;" vertex="1" parent="1">
          <mxGeometry x="480" y="480" width="40" height="40" as="geometry" />
        </mxCell>
        <mxCell id="kAC32boEKr8LLjx1eOd2-313" value="" style="rounded=0;whiteSpace=wrap;html=1;fillColor=#FFFFFF;" vertex="1" parent="1">
          <mxGeometry x="520" y="480" width="40" height="40" as="geometry" />
        </mxCell>
        <mxCell id="kAC32boEKr8LLjx1eOd2-314" value="" style="rounded=0;whiteSpace=wrap;html=1;fillColor=#FFFFFF;" vertex="1" parent="1">
          <mxGeometry x="400" y="520" width="40" height="40" as="geometry" />
        </mxCell>
        <mxCell id="kAC32boEKr8LLjx1eOd2-315" value="" style="rounded=0;whiteSpace=wrap;html=1;fillColor=#FFFFFF;" vertex="1" parent="1">
          <mxGeometry x="440" y="520" width="40" height="40" as="geometry" />
        </mxCell>
        <mxCell id="kAC32boEKr8LLjx1eOd2-316" value="" style="rounded=0;whiteSpace=wrap;html=1;" vertex="1" parent="1">
          <mxGeometry x="480" y="520" width="40" height="40" as="geometry" />
        </mxCell>
        <mxCell id="kAC32boEKr8LLjx1eOd2-317" value="" style="rounded=0;whiteSpace=wrap;html=1;fillColor=#000000;" vertex="1" parent="1">
          <mxGeometry x="520" y="520" width="40" height="40" as="geometry" />
        </mxCell>
        <mxCell id="kAC32boEKr8LLjx1eOd2-318" value="" style="endArrow=classic;html=1;rounded=0;exitX=1;exitY=0;exitDx=0;exitDy=0;entryX=0;entryY=0;entryDx=0;entryDy=0;" edge="1" parent="1" source="kAC32boEKr8LLjx1eOd2-313" target="kAC32boEKr8LLjx1eOd2-329">
          <mxGeometry width="50" height="50" relative="1" as="geometry">
            <mxPoint x="620" y="560" as="sourcePoint" />
            <mxPoint x="640" y="600" as="targetPoint" />
          </mxGeometry>
        </mxCell>
        <mxCell id="kAC32boEKr8LLjx1eOd2-319" value="ShuffleCell" style="text;html=1;strokeColor=none;fillColor=none;align=center;verticalAlign=middle;whiteSpace=wrap;rounded=0;" vertex="1" parent="1">
          <mxGeometry x="590" y="445" width="60" height="30" as="geometry" />
        </mxCell>
        <mxCell id="kAC32boEKr8LLjx1eOd2-320" value="" style="rounded=0;whiteSpace=wrap;html=1;" vertex="1" parent="1">
          <mxGeometry x="680" y="400" width="160" height="160" as="geometry" />
        </mxCell>
        <mxCell id="kAC32boEKr8LLjx1eOd2-321" value="" style="rounded=0;whiteSpace=wrap;html=1;strokeColor=default;fillColor=#FFFFFF;" vertex="1" parent="1">
          <mxGeometry x="680" y="400" width="40" height="40" as="geometry" />
        </mxCell>
        <mxCell id="kAC32boEKr8LLjx1eOd2-322" value="" style="rounded=0;whiteSpace=wrap;html=1;fillColor=#FFFFFF;" vertex="1" parent="1">
          <mxGeometry x="720" y="400" width="40" height="40" as="geometry" />
        </mxCell>
        <mxCell id="kAC32boEKr8LLjx1eOd2-323" value="" style="rounded=0;whiteSpace=wrap;html=1;fillColor=#FFFFFF;" vertex="1" parent="1">
          <mxGeometry x="760" y="400" width="40" height="40" as="geometry" />
        </mxCell>
        <mxCell id="kAC32boEKr8LLjx1eOd2-324" value="" style="rounded=0;whiteSpace=wrap;html=1;fillColor=#FFFFFF;" vertex="1" parent="1">
          <mxGeometry x="800" y="400" width="40" height="40" as="geometry" />
        </mxCell>
        <mxCell id="kAC32boEKr8LLjx1eOd2-325" value="" style="rounded=0;whiteSpace=wrap;html=1;fillColor=#FFFFFF;" vertex="1" parent="1">
          <mxGeometry x="680" y="440" width="40" height="40" as="geometry" />
        </mxCell>
        <mxCell id="kAC32boEKr8LLjx1eOd2-326" value="" style="rounded=0;whiteSpace=wrap;html=1;" vertex="1" parent="1">
          <mxGeometry x="720" y="440" width="40" height="40" as="geometry" />
        </mxCell>
        <mxCell id="kAC32boEKr8LLjx1eOd2-327" value="" style="rounded=0;whiteSpace=wrap;html=1;" vertex="1" parent="1">
          <mxGeometry x="760" y="440" width="40" height="40" as="geometry" />
        </mxCell>
        <mxCell id="kAC32boEKr8LLjx1eOd2-328" value="" style="rounded=0;whiteSpace=wrap;html=1;" vertex="1" parent="1">
          <mxGeometry x="800" y="440" width="40" height="40" as="geometry" />
        </mxCell>
        <mxCell id="kAC32boEKr8LLjx1eOd2-329" value="" style="rounded=0;whiteSpace=wrap;html=1;fillColor=#000000;" vertex="1" parent="1">
          <mxGeometry x="680" y="480" width="40" height="40" as="geometry" />
        </mxCell>
        <mxCell id="kAC32boEKr8LLjx1eOd2-330" value="" style="rounded=0;whiteSpace=wrap;html=1;" vertex="1" parent="1">
          <mxGeometry x="720" y="480" width="40" height="40" as="geometry" />
        </mxCell>
        <mxCell id="kAC32boEKr8LLjx1eOd2-331" value="" style="rounded=0;whiteSpace=wrap;html=1;" vertex="1" parent="1">
          <mxGeometry x="760" y="480" width="40" height="40" as="geometry" />
        </mxCell>
        <mxCell id="kAC32boEKr8LLjx1eOd2-332" value="" style="rounded=0;whiteSpace=wrap;html=1;" vertex="1" parent="1">
          <mxGeometry x="800" y="480" width="40" height="40" as="geometry" />
        </mxCell>
        <mxCell id="kAC32boEKr8LLjx1eOd2-333" value="" style="rounded=0;whiteSpace=wrap;html=1;fillColor=#000000;" vertex="1" parent="1">
          <mxGeometry x="680" y="520" width="40" height="40" as="geometry" />
        </mxCell>
        <mxCell id="kAC32boEKr8LLjx1eOd2-334" value="" style="rounded=0;whiteSpace=wrap;html=1;" vertex="1" parent="1">
          <mxGeometry x="720" y="520" width="40" height="40" as="geometry" />
        </mxCell>
        <mxCell id="kAC32boEKr8LLjx1eOd2-335" value="" style="rounded=0;whiteSpace=wrap;html=1;" vertex="1" parent="1">
          <mxGeometry x="760" y="520" width="40" height="40" as="geometry" />
        </mxCell>
        <mxCell id="kAC32boEKr8LLjx1eOd2-336" value="" style="rounded=0;whiteSpace=wrap;html=1;" vertex="1" parent="1">
          <mxGeometry x="800" y="520" width="40" height="40" as="geometry" />
        </mxCell>
        <mxCell id="kAC32boEKr8LLjx1eOd2-337" value="" style="endArrow=classic;html=1;rounded=0;exitX=1;exitY=0;exitDx=0;exitDy=0;" edge="1" parent="1" source="kAC32boEKr8LLjx1eOd2-332">
          <mxGeometry width="50" height="50" relative="1" as="geometry">
            <mxPoint x="920" y="480" as="sourcePoint" />
            <mxPoint x="960" y="480" as="targetPoint" />
          </mxGeometry>
        </mxCell>
        <mxCell id="kAC32boEKr8LLjx1eOd2-338" value="MixColumn" style="text;html=1;strokeColor=none;fillColor=none;align=center;verticalAlign=middle;whiteSpace=wrap;rounded=0;" vertex="1" parent="1">
          <mxGeometry x="870" y="445" width="60" height="30" as="geometry" />
        </mxCell>
        <mxCell id="kAC32boEKr8LLjx1eOd2-684" style="edgeStyle=orthogonalEdgeStyle;rounded=0;orthogonalLoop=1;jettySize=auto;html=1;exitX=0.5;exitY=1;exitDx=0;exitDy=0;entryX=0;entryY=0;entryDx=0;entryDy=0;" edge="1" parent="1" source="kAC32boEKr8LLjx1eOd2-339" target="kAC32boEKr8LLjx1eOd2-533">
          <mxGeometry relative="1" as="geometry">
            <Array as="points">
              <mxPoint x="1261" y="631" />
              <mxPoint x="40" y="631" />
              <mxPoint x="40" y="760" />
            </Array>
          </mxGeometry>
        </mxCell>
        <mxCell id="kAC32boEKr8LLjx1eOd2-339" value="" style="ellipse;whiteSpace=wrap;html=1;fillColor=none;" vertex="1" parent="1">
          <mxGeometry x="1239.75" y="458.75" width="42.5" height="42.5" as="geometry" />
        </mxCell>
        <mxCell id="kAC32boEKr8LLjx1eOd2-340" value="" style="endArrow=none;html=1;rounded=0;entryX=0.5;entryY=0;entryDx=0;entryDy=0;exitX=0.5;exitY=1;exitDx=0;exitDy=0;" edge="1" parent="1" source="kAC32boEKr8LLjx1eOd2-339" target="kAC32boEKr8LLjx1eOd2-339">
          <mxGeometry width="50" height="50" relative="1" as="geometry">
            <mxPoint x="1218.75" y="540" as="sourcePoint" />
            <mxPoint x="1268.75" y="490" as="targetPoint" />
          </mxGeometry>
        </mxCell>
        <mxCell id="kAC32boEKr8LLjx1eOd2-341" value="" style="endArrow=none;html=1;rounded=0;entryX=1;entryY=0.5;entryDx=0;entryDy=0;exitX=0;exitY=0.5;exitDx=0;exitDy=0;" edge="1" parent="1" source="kAC32boEKr8LLjx1eOd2-339" target="kAC32boEKr8LLjx1eOd2-339">
          <mxGeometry width="50" height="50" relative="1" as="geometry">
            <mxPoint x="1218.75" y="540" as="sourcePoint" />
            <mxPoint x="1268.75" y="490" as="targetPoint" />
          </mxGeometry>
        </mxCell>
        <mxCell id="kAC32boEKr8LLjx1eOd2-342" value="" style="endArrow=classic;html=1;rounded=0;entryX=1;entryY=0.5;entryDx=0;entryDy=0;" edge="1" parent="1" target="kAC32boEKr8LLjx1eOd2-339">
          <mxGeometry width="50" height="50" relative="1" as="geometry">
            <mxPoint x="1400" y="480" as="sourcePoint" />
            <mxPoint x="1431" y="578.75" as="targetPoint" />
          </mxGeometry>
        </mxCell>
        <mxCell id="kAC32boEKr8LLjx1eOd2-343" value="\(K_2\)" style="text;html=1;strokeColor=none;fillColor=none;align=center;verticalAlign=middle;whiteSpace=wrap;rounded=0;fontSize=16;fontColor=#FFFFFF;" vertex="1" parent="1">
          <mxGeometry x="1400" y="465" width="60" height="30" as="geometry" />
        </mxCell>
        <mxCell id="kAC32boEKr8LLjx1eOd2-344" value="" style="endArrow=classic;html=1;rounded=0;exitX=1;exitY=0;exitDx=0;exitDy=0;entryX=0;entryY=0;entryDx=0;entryDy=0;" edge="1" parent="1" source="kAC32boEKr8LLjx1eOd2-295" target="kAC32boEKr8LLjx1eOd2-310">
          <mxGeometry width="50" height="50" relative="1" as="geometry">
            <mxPoint x="440" y="520" as="sourcePoint" />
            <mxPoint x="490" y="470" as="targetPoint" />
          </mxGeometry>
        </mxCell>
        <mxCell id="kAC32boEKr8LLjx1eOd2-345" value="" style="rounded=0;whiteSpace=wrap;html=1;" vertex="1" parent="1">
          <mxGeometry x="960" y="400" width="160" height="160" as="geometry" />
        </mxCell>
        <mxCell id="kAC32boEKr8LLjx1eOd2-346" value="" style="rounded=0;whiteSpace=wrap;html=1;strokeColor=#000000;fillColor=#FFFFFF;" vertex="1" parent="1">
          <mxGeometry x="960" y="400" width="40" height="40" as="geometry" />
        </mxCell>
        <mxCell id="kAC32boEKr8LLjx1eOd2-347" value="" style="rounded=0;whiteSpace=wrap;html=1;" vertex="1" parent="1">
          <mxGeometry x="1000" y="400" width="40" height="40" as="geometry" />
        </mxCell>
        <mxCell id="kAC32boEKr8LLjx1eOd2-348" value="" style="rounded=0;whiteSpace=wrap;html=1;" vertex="1" parent="1">
          <mxGeometry x="1040" y="400" width="40" height="40" as="geometry" />
        </mxCell>
        <mxCell id="kAC32boEKr8LLjx1eOd2-349" value="" style="rounded=0;whiteSpace=wrap;html=1;" vertex="1" parent="1">
          <mxGeometry x="1080" y="400" width="40" height="40" as="geometry" />
        </mxCell>
        <mxCell id="kAC32boEKr8LLjx1eOd2-350" value="" style="rounded=0;whiteSpace=wrap;html=1;fillColor=#FFFFFF;" vertex="1" parent="1">
          <mxGeometry x="960" y="440" width="40" height="40" as="geometry" />
        </mxCell>
        <mxCell id="kAC32boEKr8LLjx1eOd2-351" value="" style="rounded=0;whiteSpace=wrap;html=1;" vertex="1" parent="1">
          <mxGeometry x="1000" y="440" width="40" height="40" as="geometry" />
        </mxCell>
        <mxCell id="kAC32boEKr8LLjx1eOd2-352" value="" style="rounded=0;whiteSpace=wrap;html=1;fillColor=#FFFFFF;" vertex="1" parent="1">
          <mxGeometry x="1040" y="440" width="40" height="40" as="geometry" />
        </mxCell>
        <mxCell id="kAC32boEKr8LLjx1eOd2-353" value="" style="rounded=0;whiteSpace=wrap;html=1;" vertex="1" parent="1">
          <mxGeometry x="1080" y="440" width="40" height="40" as="geometry" />
        </mxCell>
        <mxCell id="kAC32boEKr8LLjx1eOd2-354" value="" style="rounded=0;whiteSpace=wrap;html=1;fillColor=#000000;" vertex="1" parent="1">
          <mxGeometry x="960" y="480" width="40" height="40" as="geometry" />
        </mxCell>
        <mxCell id="kAC32boEKr8LLjx1eOd2-355" value="" style="rounded=0;whiteSpace=wrap;html=1;" vertex="1" parent="1">
          <mxGeometry x="1000" y="480" width="40" height="40" as="geometry" />
        </mxCell>
        <mxCell id="kAC32boEKr8LLjx1eOd2-356" value="" style="rounded=0;whiteSpace=wrap;html=1;" vertex="1" parent="1">
          <mxGeometry x="1040" y="480" width="40" height="40" as="geometry" />
        </mxCell>
        <mxCell id="kAC32boEKr8LLjx1eOd2-357" value="" style="rounded=0;whiteSpace=wrap;html=1;fillColor=#FFFFFF;" vertex="1" parent="1">
          <mxGeometry x="1080" y="480" width="40" height="40" as="geometry" />
        </mxCell>
        <mxCell id="kAC32boEKr8LLjx1eOd2-358" value="" style="rounded=0;whiteSpace=wrap;html=1;fillColor=#000000;" vertex="1" parent="1">
          <mxGeometry x="960" y="520" width="40" height="40" as="geometry" />
        </mxCell>
        <mxCell id="kAC32boEKr8LLjx1eOd2-359" value="" style="rounded=0;whiteSpace=wrap;html=1;fillColor=#FFFFFF;" vertex="1" parent="1">
          <mxGeometry x="1000" y="520" width="40" height="40" as="geometry" />
        </mxCell>
        <mxCell id="kAC32boEKr8LLjx1eOd2-360" value="" style="rounded=0;whiteSpace=wrap;html=1;" vertex="1" parent="1">
          <mxGeometry x="1040" y="520" width="40" height="40" as="geometry" />
        </mxCell>
        <mxCell id="kAC32boEKr8LLjx1eOd2-361" value="" style="rounded=0;whiteSpace=wrap;html=1;" vertex="1" parent="1">
          <mxGeometry x="1080" y="520" width="40" height="40" as="geometry" />
        </mxCell>
        <mxCell id="kAC32boEKr8LLjx1eOd2-362" value="" style="endArrow=classic;html=1;rounded=0;exitX=1;exitY=0;exitDx=0;exitDy=0;" edge="1" parent="1" source="kAC32boEKr8LLjx1eOd2-357">
          <mxGeometry width="50" height="50" relative="1" as="geometry">
            <mxPoint x="1200" y="480" as="sourcePoint" />
            <mxPoint x="1240" y="480" as="targetPoint" />
          </mxGeometry>
        </mxCell>
        <mxCell id="kAC32boEKr8LLjx1eOd2-524" value="" style="rounded=0;whiteSpace=wrap;html=1;" vertex="1" parent="1">
          <mxGeometry x="120" y="680" width="160" height="160" as="geometry" />
        </mxCell>
        <mxCell id="kAC32boEKr8LLjx1eOd2-525" value="" style="rounded=0;whiteSpace=wrap;html=1;fillColor=#FFFFFF;" vertex="1" parent="1">
          <mxGeometry x="120" y="680" width="40" height="40" as="geometry" />
        </mxCell>
        <mxCell id="kAC32boEKr8LLjx1eOd2-526" value="" style="rounded=0;whiteSpace=wrap;html=1;" vertex="1" parent="1">
          <mxGeometry x="160" y="680" width="40" height="40" as="geometry" />
        </mxCell>
        <mxCell id="kAC32boEKr8LLjx1eOd2-527" value="" style="rounded=0;whiteSpace=wrap;html=1;" vertex="1" parent="1">
          <mxGeometry x="200" y="680" width="40" height="40" as="geometry" />
        </mxCell>
        <mxCell id="kAC32boEKr8LLjx1eOd2-528" value="" style="rounded=0;whiteSpace=wrap;html=1;" vertex="1" parent="1">
          <mxGeometry x="240" y="680" width="40" height="40" as="geometry" />
        </mxCell>
        <mxCell id="kAC32boEKr8LLjx1eOd2-529" value="" style="rounded=0;whiteSpace=wrap;html=1;fillColor=#FFFFFF;" vertex="1" parent="1">
          <mxGeometry x="120" y="720" width="40" height="40" as="geometry" />
        </mxCell>
        <mxCell id="kAC32boEKr8LLjx1eOd2-530" value="" style="rounded=0;whiteSpace=wrap;html=1;" vertex="1" parent="1">
          <mxGeometry x="160" y="720" width="40" height="40" as="geometry" />
        </mxCell>
        <mxCell id="kAC32boEKr8LLjx1eOd2-531" value="" style="rounded=0;whiteSpace=wrap;html=1;fillColor=#FFFFFF;" vertex="1" parent="1">
          <mxGeometry x="200" y="720" width="40" height="40" as="geometry" />
        </mxCell>
        <mxCell id="kAC32boEKr8LLjx1eOd2-532" value="" style="rounded=0;whiteSpace=wrap;html=1;" vertex="1" parent="1">
          <mxGeometry x="240" y="720" width="40" height="40" as="geometry" />
        </mxCell>
        <mxCell id="kAC32boEKr8LLjx1eOd2-533" value="" style="rounded=0;whiteSpace=wrap;html=1;fillColor=#000000;" vertex="1" parent="1">
          <mxGeometry x="120" y="760" width="40" height="40" as="geometry" />
        </mxCell>
        <mxCell id="kAC32boEKr8LLjx1eOd2-534" value="" style="rounded=0;whiteSpace=wrap;html=1;" vertex="1" parent="1">
          <mxGeometry x="160" y="760" width="40" height="40" as="geometry" />
        </mxCell>
        <mxCell id="kAC32boEKr8LLjx1eOd2-535" value="" style="rounded=0;whiteSpace=wrap;html=1;fillColor=#FFFFFF;" vertex="1" parent="1">
          <mxGeometry x="200" y="760" width="40" height="40" as="geometry" />
        </mxCell>
        <mxCell id="kAC32boEKr8LLjx1eOd2-536" value="" style="rounded=0;whiteSpace=wrap;html=1;fillColor=#FFFFFF;" vertex="1" parent="1">
          <mxGeometry x="240" y="760" width="40" height="40" as="geometry" />
        </mxCell>
        <mxCell id="kAC32boEKr8LLjx1eOd2-537" value="" style="rounded=0;whiteSpace=wrap;html=1;fillColor=#000000;" vertex="1" parent="1">
          <mxGeometry x="120" y="800" width="40" height="40" as="geometry" />
        </mxCell>
        <mxCell id="kAC32boEKr8LLjx1eOd2-538" value="" style="rounded=0;whiteSpace=wrap;html=1;fillColor=#FFFFFF;" vertex="1" parent="1">
          <mxGeometry x="160" y="800" width="40" height="40" as="geometry" />
        </mxCell>
        <mxCell id="kAC32boEKr8LLjx1eOd2-539" value="" style="rounded=0;whiteSpace=wrap;html=1;" vertex="1" parent="1">
          <mxGeometry x="200" y="800" width="40" height="40" as="geometry" />
        </mxCell>
        <mxCell id="kAC32boEKr8LLjx1eOd2-540" value="" style="rounded=0;whiteSpace=wrap;html=1;" vertex="1" parent="1">
          <mxGeometry x="240" y="800" width="40" height="40" as="geometry" />
        </mxCell>
        <mxCell id="kAC32boEKr8LLjx1eOd2-541" value="SubCell" style="text;html=1;strokeColor=none;fillColor=none;align=center;verticalAlign=middle;whiteSpace=wrap;rounded=0;" vertex="1" parent="1">
          <mxGeometry x="310" y="725" width="60" height="30" as="geometry" />
        </mxCell>
        <mxCell id="kAC32boEKr8LLjx1eOd2-542" value="" style="rounded=0;whiteSpace=wrap;html=1;" vertex="1" parent="1">
          <mxGeometry x="400" y="680" width="160" height="160" as="geometry" />
        </mxCell>
        <mxCell id="kAC32boEKr8LLjx1eOd2-543" value="" style="rounded=0;whiteSpace=wrap;html=1;fillColor=#FFFFFF;" vertex="1" parent="1">
          <mxGeometry x="400" y="680" width="40" height="40" as="geometry" />
        </mxCell>
        <mxCell id="kAC32boEKr8LLjx1eOd2-544" value="" style="rounded=0;whiteSpace=wrap;html=1;" vertex="1" parent="1">
          <mxGeometry x="440" y="680" width="40" height="40" as="geometry" />
        </mxCell>
        <mxCell id="kAC32boEKr8LLjx1eOd2-545" value="" style="rounded=0;whiteSpace=wrap;html=1;" vertex="1" parent="1">
          <mxGeometry x="480" y="680" width="40" height="40" as="geometry" />
        </mxCell>
        <mxCell id="kAC32boEKr8LLjx1eOd2-546" value="" style="rounded=0;whiteSpace=wrap;html=1;" vertex="1" parent="1">
          <mxGeometry x="520" y="680" width="40" height="40" as="geometry" />
        </mxCell>
        <mxCell id="kAC32boEKr8LLjx1eOd2-547" value="" style="rounded=0;whiteSpace=wrap;html=1;fillColor=#FFFFFF;" vertex="1" parent="1">
          <mxGeometry x="400" y="720" width="40" height="40" as="geometry" />
        </mxCell>
        <mxCell id="kAC32boEKr8LLjx1eOd2-548" value="" style="rounded=0;whiteSpace=wrap;html=1;" vertex="1" parent="1">
          <mxGeometry x="440" y="720" width="40" height="40" as="geometry" />
        </mxCell>
        <mxCell id="kAC32boEKr8LLjx1eOd2-549" value="" style="rounded=0;whiteSpace=wrap;html=1;fillColor=#FFFFFF;" vertex="1" parent="1">
          <mxGeometry x="480" y="720" width="40" height="40" as="geometry" />
        </mxCell>
        <mxCell id="kAC32boEKr8LLjx1eOd2-550" value="" style="rounded=0;whiteSpace=wrap;html=1;" vertex="1" parent="1">
          <mxGeometry x="520" y="720" width="40" height="40" as="geometry" />
        </mxCell>
        <mxCell id="kAC32boEKr8LLjx1eOd2-551" value="" style="rounded=0;whiteSpace=wrap;html=1;fillColor=#000000;" vertex="1" parent="1">
          <mxGeometry x="400" y="760" width="40" height="40" as="geometry" />
        </mxCell>
        <mxCell id="kAC32boEKr8LLjx1eOd2-552" value="" style="rounded=0;whiteSpace=wrap;html=1;" vertex="1" parent="1">
          <mxGeometry x="440" y="760" width="40" height="40" as="geometry" />
        </mxCell>
        <mxCell id="kAC32boEKr8LLjx1eOd2-553" value="" style="rounded=0;whiteSpace=wrap;html=1;fillColor=#FFFFFF;" vertex="1" parent="1">
          <mxGeometry x="480" y="760" width="40" height="40" as="geometry" />
        </mxCell>
        <mxCell id="kAC32boEKr8LLjx1eOd2-554" value="" style="rounded=0;whiteSpace=wrap;html=1;fillColor=#FFFFFF;" vertex="1" parent="1">
          <mxGeometry x="520" y="760" width="40" height="40" as="geometry" />
        </mxCell>
        <mxCell id="kAC32boEKr8LLjx1eOd2-555" value="" style="rounded=0;whiteSpace=wrap;html=1;fillColor=#000000;" vertex="1" parent="1">
          <mxGeometry x="400" y="800" width="40" height="40" as="geometry" />
        </mxCell>
        <mxCell id="kAC32boEKr8LLjx1eOd2-556" value="" style="rounded=0;whiteSpace=wrap;html=1;fillColor=#FFFFFF;" vertex="1" parent="1">
          <mxGeometry x="440" y="800" width="40" height="40" as="geometry" />
        </mxCell>
        <mxCell id="kAC32boEKr8LLjx1eOd2-557" value="" style="rounded=0;whiteSpace=wrap;html=1;" vertex="1" parent="1">
          <mxGeometry x="480" y="800" width="40" height="40" as="geometry" />
        </mxCell>
        <mxCell id="kAC32boEKr8LLjx1eOd2-558" value="" style="rounded=0;whiteSpace=wrap;html=1;" vertex="1" parent="1">
          <mxGeometry x="520" y="800" width="40" height="40" as="geometry" />
        </mxCell>
        <mxCell id="kAC32boEKr8LLjx1eOd2-559" value="" style="endArrow=classic;html=1;rounded=0;exitX=1;exitY=0;exitDx=0;exitDy=0;entryX=0;entryY=0;entryDx=0;entryDy=0;" edge="1" parent="1" source="kAC32boEKr8LLjx1eOd2-554" target="kAC32boEKr8LLjx1eOd2-570">
          <mxGeometry width="50" height="50" relative="1" as="geometry">
            <mxPoint x="620" y="840" as="sourcePoint" />
            <mxPoint x="640" y="880" as="targetPoint" />
          </mxGeometry>
        </mxCell>
        <mxCell id="kAC32boEKr8LLjx1eOd2-560" value="ShuffleCell" style="text;html=1;strokeColor=none;fillColor=none;align=center;verticalAlign=middle;whiteSpace=wrap;rounded=0;" vertex="1" parent="1">
          <mxGeometry x="590" y="725" width="60" height="30" as="geometry" />
        </mxCell>
        <mxCell id="kAC32boEKr8LLjx1eOd2-561" value="" style="rounded=0;whiteSpace=wrap;html=1;" vertex="1" parent="1">
          <mxGeometry x="680" y="680" width="160" height="160" as="geometry" />
        </mxCell>
        <mxCell id="kAC32boEKr8LLjx1eOd2-562" value="" style="rounded=0;whiteSpace=wrap;html=1;strokeColor=default;fillColor=#FFFFFF;" vertex="1" parent="1">
          <mxGeometry x="680" y="680" width="40" height="40" as="geometry" />
        </mxCell>
        <mxCell id="kAC32boEKr8LLjx1eOd2-563" value="" style="rounded=0;whiteSpace=wrap;html=1;fillColor=#FFFFFF;" vertex="1" parent="1">
          <mxGeometry x="720" y="680" width="40" height="40" as="geometry" />
        </mxCell>
        <mxCell id="kAC32boEKr8LLjx1eOd2-564" value="" style="rounded=0;whiteSpace=wrap;html=1;fillColor=#FFFFFF;" vertex="1" parent="1">
          <mxGeometry x="760" y="680" width="40" height="40" as="geometry" />
        </mxCell>
        <mxCell id="kAC32boEKr8LLjx1eOd2-565" value="" style="rounded=0;whiteSpace=wrap;html=1;fillColor=#FFFFFF;" vertex="1" parent="1">
          <mxGeometry x="800" y="680" width="40" height="40" as="geometry" />
        </mxCell>
        <mxCell id="kAC32boEKr8LLjx1eOd2-566" value="" style="rounded=0;whiteSpace=wrap;html=1;fillColor=#FFFFFF;" vertex="1" parent="1">
          <mxGeometry x="680" y="720" width="40" height="40" as="geometry" />
        </mxCell>
        <mxCell id="kAC32boEKr8LLjx1eOd2-567" value="" style="rounded=0;whiteSpace=wrap;html=1;" vertex="1" parent="1">
          <mxGeometry x="720" y="720" width="40" height="40" as="geometry" />
        </mxCell>
        <mxCell id="kAC32boEKr8LLjx1eOd2-568" value="" style="rounded=0;whiteSpace=wrap;html=1;fillColor=#000000;" vertex="1" parent="1">
          <mxGeometry x="760" y="720" width="40" height="40" as="geometry" />
        </mxCell>
        <mxCell id="kAC32boEKr8LLjx1eOd2-569" value="" style="rounded=0;whiteSpace=wrap;html=1;" vertex="1" parent="1">
          <mxGeometry x="800" y="720" width="40" height="40" as="geometry" />
        </mxCell>
        <mxCell id="kAC32boEKr8LLjx1eOd2-570" value="" style="rounded=0;whiteSpace=wrap;html=1;" vertex="1" parent="1">
          <mxGeometry x="680" y="760" width="40" height="40" as="geometry" />
        </mxCell>
        <mxCell id="kAC32boEKr8LLjx1eOd2-571" value="" style="rounded=0;whiteSpace=wrap;html=1;" vertex="1" parent="1">
          <mxGeometry x="720" y="760" width="40" height="40" as="geometry" />
        </mxCell>
        <mxCell id="kAC32boEKr8LLjx1eOd2-572" value="" style="rounded=0;whiteSpace=wrap;html=1;" vertex="1" parent="1">
          <mxGeometry x="760" y="760" width="40" height="40" as="geometry" />
        </mxCell>
        <mxCell id="kAC32boEKr8LLjx1eOd2-573" value="" style="rounded=0;whiteSpace=wrap;html=1;fillColor=#000000;" vertex="1" parent="1">
          <mxGeometry x="800" y="760" width="40" height="40" as="geometry" />
        </mxCell>
        <mxCell id="kAC32boEKr8LLjx1eOd2-574" value="" style="rounded=0;whiteSpace=wrap;html=1;" vertex="1" parent="1">
          <mxGeometry x="680" y="800" width="40" height="40" as="geometry" />
        </mxCell>
        <mxCell id="kAC32boEKr8LLjx1eOd2-575" value="" style="rounded=0;whiteSpace=wrap;html=1;" vertex="1" parent="1">
          <mxGeometry x="720" y="800" width="40" height="40" as="geometry" />
        </mxCell>
        <mxCell id="kAC32boEKr8LLjx1eOd2-576" value="" style="rounded=0;whiteSpace=wrap;html=1;" vertex="1" parent="1">
          <mxGeometry x="760" y="800" width="40" height="40" as="geometry" />
        </mxCell>
        <mxCell id="kAC32boEKr8LLjx1eOd2-577" value="" style="rounded=0;whiteSpace=wrap;html=1;" vertex="1" parent="1">
          <mxGeometry x="800" y="800" width="40" height="40" as="geometry" />
        </mxCell>
        <mxCell id="kAC32boEKr8LLjx1eOd2-578" value="" style="endArrow=classic;html=1;rounded=0;exitX=1;exitY=0;exitDx=0;exitDy=0;" edge="1" parent="1" source="kAC32boEKr8LLjx1eOd2-573">
          <mxGeometry width="50" height="50" relative="1" as="geometry">
            <mxPoint x="920" y="760" as="sourcePoint" />
            <mxPoint x="960" y="760" as="targetPoint" />
          </mxGeometry>
        </mxCell>
        <mxCell id="kAC32boEKr8LLjx1eOd2-579" value="MixColumn" style="text;html=1;strokeColor=none;fillColor=none;align=center;verticalAlign=middle;whiteSpace=wrap;rounded=0;" vertex="1" parent="1">
          <mxGeometry x="870" y="725" width="60" height="30" as="geometry" />
        </mxCell>
        <mxCell id="kAC32boEKr8LLjx1eOd2-685" style="edgeStyle=orthogonalEdgeStyle;rounded=0;orthogonalLoop=1;jettySize=auto;html=1;exitX=0.5;exitY=1;exitDx=0;exitDy=0;entryX=0;entryY=1;entryDx=0;entryDy=0;" edge="1" parent="1" source="kAC32boEKr8LLjx1eOd2-580" target="kAC32boEKr8LLjx1eOd2-609">
          <mxGeometry relative="1" as="geometry">
            <Array as="points">
              <mxPoint x="1261" y="891" />
              <mxPoint x="40" y="891" />
              <mxPoint x="40" y="1040" />
            </Array>
          </mxGeometry>
        </mxCell>
        <mxCell id="kAC32boEKr8LLjx1eOd2-580" value="" style="ellipse;whiteSpace=wrap;html=1;fillColor=none;" vertex="1" parent="1">
          <mxGeometry x="1239.75" y="738.75" width="42.5" height="42.5" as="geometry" />
        </mxCell>
        <mxCell id="kAC32boEKr8LLjx1eOd2-581" value="" style="endArrow=none;html=1;rounded=0;entryX=0.5;entryY=0;entryDx=0;entryDy=0;exitX=0.5;exitY=1;exitDx=0;exitDy=0;" edge="1" parent="1" source="kAC32boEKr8LLjx1eOd2-580" target="kAC32boEKr8LLjx1eOd2-580">
          <mxGeometry width="50" height="50" relative="1" as="geometry">
            <mxPoint x="1218.75" y="820" as="sourcePoint" />
            <mxPoint x="1268.75" y="770" as="targetPoint" />
          </mxGeometry>
        </mxCell>
        <mxCell id="kAC32boEKr8LLjx1eOd2-582" value="" style="endArrow=none;html=1;rounded=0;entryX=1;entryY=0.5;entryDx=0;entryDy=0;exitX=0;exitY=0.5;exitDx=0;exitDy=0;" edge="1" parent="1" source="kAC32boEKr8LLjx1eOd2-580" target="kAC32boEKr8LLjx1eOd2-580">
          <mxGeometry width="50" height="50" relative="1" as="geometry">
            <mxPoint x="1218.75" y="820" as="sourcePoint" />
            <mxPoint x="1268.75" y="770" as="targetPoint" />
          </mxGeometry>
        </mxCell>
        <mxCell id="kAC32boEKr8LLjx1eOd2-583" value="" style="endArrow=classic;html=1;rounded=0;entryX=1;entryY=0.5;entryDx=0;entryDy=0;" edge="1" parent="1" target="kAC32boEKr8LLjx1eOd2-580">
          <mxGeometry width="50" height="50" relative="1" as="geometry">
            <mxPoint x="1400" y="760" as="sourcePoint" />
            <mxPoint x="1431" y="858.75" as="targetPoint" />
          </mxGeometry>
        </mxCell>
        <mxCell id="kAC32boEKr8LLjx1eOd2-584" value="\(K_3\)" style="text;html=1;strokeColor=none;fillColor=none;align=center;verticalAlign=middle;whiteSpace=wrap;rounded=0;fontSize=16;fontColor=#FFFFFF;" vertex="1" parent="1">
          <mxGeometry x="1400" y="745" width="60" height="30" as="geometry" />
        </mxCell>
        <mxCell id="kAC32boEKr8LLjx1eOd2-585" value="" style="endArrow=classic;html=1;rounded=0;exitX=1;exitY=0;exitDx=0;exitDy=0;entryX=0;entryY=0;entryDx=0;entryDy=0;" edge="1" parent="1" source="kAC32boEKr8LLjx1eOd2-536" target="kAC32boEKr8LLjx1eOd2-551">
          <mxGeometry width="50" height="50" relative="1" as="geometry">
            <mxPoint x="440" y="800" as="sourcePoint" />
            <mxPoint x="490" y="750" as="targetPoint" />
          </mxGeometry>
        </mxCell>
        <mxCell id="kAC32boEKr8LLjx1eOd2-586" value="" style="rounded=0;whiteSpace=wrap;html=1;" vertex="1" parent="1">
          <mxGeometry x="960" y="680" width="160" height="160" as="geometry" />
        </mxCell>
        <mxCell id="kAC32boEKr8LLjx1eOd2-587" value="" style="rounded=0;whiteSpace=wrap;html=1;strokeColor=#000000;fillColor=#FFFFFF;" vertex="1" parent="1">
          <mxGeometry x="960" y="680" width="40" height="40" as="geometry" />
        </mxCell>
        <mxCell id="kAC32boEKr8LLjx1eOd2-588" value="" style="rounded=0;whiteSpace=wrap;html=1;" vertex="1" parent="1">
          <mxGeometry x="1000" y="680" width="40" height="40" as="geometry" />
        </mxCell>
        <mxCell id="kAC32boEKr8LLjx1eOd2-589" value="" style="rounded=0;whiteSpace=wrap;html=1;fillColor=#000000;" vertex="1" parent="1">
          <mxGeometry x="1040" y="680" width="40" height="40" as="geometry" />
        </mxCell>
        <mxCell id="kAC32boEKr8LLjx1eOd2-590" value="" style="rounded=0;whiteSpace=wrap;html=1;fillColor=#000000;" vertex="1" parent="1">
          <mxGeometry x="1080" y="680" width="40" height="40" as="geometry" />
        </mxCell>
        <mxCell id="kAC32boEKr8LLjx1eOd2-591" value="" style="rounded=0;whiteSpace=wrap;html=1;fillColor=#FFFFFF;" vertex="1" parent="1">
          <mxGeometry x="960" y="720" width="40" height="40" as="geometry" />
        </mxCell>
        <mxCell id="kAC32boEKr8LLjx1eOd2-592" value="" style="rounded=0;whiteSpace=wrap;html=1;" vertex="1" parent="1">
          <mxGeometry x="1000" y="720" width="40" height="40" as="geometry" />
        </mxCell>
        <mxCell id="kAC32boEKr8LLjx1eOd2-593" value="" style="rounded=0;whiteSpace=wrap;html=1;fillColor=#FFFFFF;" vertex="1" parent="1">
          <mxGeometry x="1040" y="720" width="40" height="40" as="geometry" />
        </mxCell>
        <mxCell id="kAC32boEKr8LLjx1eOd2-594" value="" style="rounded=0;whiteSpace=wrap;html=1;fillColor=#000000;" vertex="1" parent="1">
          <mxGeometry x="1080" y="720" width="40" height="40" as="geometry" />
        </mxCell>
        <mxCell id="kAC32boEKr8LLjx1eOd2-595" value="" style="rounded=0;whiteSpace=wrap;html=1;" vertex="1" parent="1">
          <mxGeometry x="960" y="760" width="40" height="40" as="geometry" />
        </mxCell>
        <mxCell id="kAC32boEKr8LLjx1eOd2-596" value="" style="rounded=0;whiteSpace=wrap;html=1;" vertex="1" parent="1">
          <mxGeometry x="1000" y="760" width="40" height="40" as="geometry" />
        </mxCell>
        <mxCell id="kAC32boEKr8LLjx1eOd2-597" value="" style="rounded=0;whiteSpace=wrap;html=1;fillColor=#000000;" vertex="1" parent="1">
          <mxGeometry x="1040" y="760" width="40" height="40" as="geometry" />
        </mxCell>
        <mxCell id="kAC32boEKr8LLjx1eOd2-598" value="" style="rounded=0;whiteSpace=wrap;html=1;fillColor=#FFFFFF;" vertex="1" parent="1">
          <mxGeometry x="1080" y="760" width="40" height="40" as="geometry" />
        </mxCell>
        <mxCell id="kAC32boEKr8LLjx1eOd2-599" value="" style="rounded=0;whiteSpace=wrap;html=1;" vertex="1" parent="1">
          <mxGeometry x="960" y="800" width="40" height="40" as="geometry" />
        </mxCell>
        <mxCell id="kAC32boEKr8LLjx1eOd2-600" value="" style="rounded=0;whiteSpace=wrap;html=1;fillColor=#FFFFFF;" vertex="1" parent="1">
          <mxGeometry x="1000" y="800" width="40" height="40" as="geometry" />
        </mxCell>
        <mxCell id="kAC32boEKr8LLjx1eOd2-601" value="" style="rounded=0;whiteSpace=wrap;html=1;fillColor=#000000;" vertex="1" parent="1">
          <mxGeometry x="1040" y="800" width="40" height="40" as="geometry" />
        </mxCell>
        <mxCell id="kAC32boEKr8LLjx1eOd2-602" value="" style="rounded=0;whiteSpace=wrap;html=1;fillColor=#000000;" vertex="1" parent="1">
          <mxGeometry x="1080" y="800" width="40" height="40" as="geometry" />
        </mxCell>
        <mxCell id="kAC32boEKr8LLjx1eOd2-603" value="" style="endArrow=classic;html=1;rounded=0;exitX=1;exitY=0;exitDx=0;exitDy=0;" edge="1" parent="1" source="kAC32boEKr8LLjx1eOd2-598">
          <mxGeometry width="50" height="50" relative="1" as="geometry">
            <mxPoint x="1200" y="760" as="sourcePoint" />
            <mxPoint x="1240" y="760" as="targetPoint" />
          </mxGeometry>
        </mxCell>
        <mxCell id="kAC32boEKr8LLjx1eOd2-604" value="" style="rounded=0;whiteSpace=wrap;html=1;" vertex="1" parent="1">
          <mxGeometry x="120" y="960" width="160" height="160" as="geometry" />
        </mxCell>
        <mxCell id="kAC32boEKr8LLjx1eOd2-605" value="" style="rounded=0;whiteSpace=wrap;html=1;fillColor=#FFFFFF;" vertex="1" parent="1">
          <mxGeometry x="120" y="960" width="40" height="40" as="geometry" />
        </mxCell>
        <mxCell id="kAC32boEKr8LLjx1eOd2-606" value="" style="rounded=0;whiteSpace=wrap;html=1;" vertex="1" parent="1">
          <mxGeometry x="160" y="960" width="40" height="40" as="geometry" />
        </mxCell>
        <mxCell id="kAC32boEKr8LLjx1eOd2-607" value="" style="rounded=0;whiteSpace=wrap;html=1;fillColor=#000000;" vertex="1" parent="1">
          <mxGeometry x="200" y="960" width="40" height="40" as="geometry" />
        </mxCell>
        <mxCell id="kAC32boEKr8LLjx1eOd2-608" value="" style="rounded=0;whiteSpace=wrap;html=1;fillColor=#000000;" vertex="1" parent="1">
          <mxGeometry x="240" y="960" width="40" height="40" as="geometry" />
        </mxCell>
        <mxCell id="kAC32boEKr8LLjx1eOd2-609" value="" style="rounded=0;whiteSpace=wrap;html=1;fillColor=#FFFFFF;" vertex="1" parent="1">
          <mxGeometry x="120" y="1000" width="40" height="40" as="geometry" />
        </mxCell>
        <mxCell id="kAC32boEKr8LLjx1eOd2-610" value="" style="rounded=0;whiteSpace=wrap;html=1;" vertex="1" parent="1">
          <mxGeometry x="160" y="1000" width="40" height="40" as="geometry" />
        </mxCell>
        <mxCell id="kAC32boEKr8LLjx1eOd2-611" value="" style="rounded=0;whiteSpace=wrap;html=1;fillColor=#FFFFFF;" vertex="1" parent="1">
          <mxGeometry x="200" y="1000" width="40" height="40" as="geometry" />
        </mxCell>
        <mxCell id="kAC32boEKr8LLjx1eOd2-612" value="" style="rounded=0;whiteSpace=wrap;html=1;fillColor=#000000;" vertex="1" parent="1">
          <mxGeometry x="240" y="1000" width="40" height="40" as="geometry" />
        </mxCell>
        <mxCell id="kAC32boEKr8LLjx1eOd2-613" value="" style="rounded=0;whiteSpace=wrap;html=1;fillColor=#FFFFFF;" vertex="1" parent="1">
          <mxGeometry x="120" y="1040" width="40" height="40" as="geometry" />
        </mxCell>
        <mxCell id="kAC32boEKr8LLjx1eOd2-614" value="" style="rounded=0;whiteSpace=wrap;html=1;" vertex="1" parent="1">
          <mxGeometry x="160" y="1040" width="40" height="40" as="geometry" />
        </mxCell>
        <mxCell id="kAC32boEKr8LLjx1eOd2-615" value="" style="rounded=0;whiteSpace=wrap;html=1;fillColor=#000000;" vertex="1" parent="1">
          <mxGeometry x="200" y="1040" width="40" height="40" as="geometry" />
        </mxCell>
        <mxCell id="kAC32boEKr8LLjx1eOd2-616" value="" style="rounded=0;whiteSpace=wrap;html=1;fillColor=#FFFFFF;" vertex="1" parent="1">
          <mxGeometry x="240" y="1040" width="40" height="40" as="geometry" />
        </mxCell>
        <mxCell id="kAC32boEKr8LLjx1eOd2-617" value="" style="rounded=0;whiteSpace=wrap;html=1;fillColor=#FFFFFF;" vertex="1" parent="1">
          <mxGeometry x="120" y="1080" width="40" height="40" as="geometry" />
        </mxCell>
        <mxCell id="kAC32boEKr8LLjx1eOd2-618" value="" style="rounded=0;whiteSpace=wrap;html=1;fillColor=#FFFFFF;" vertex="1" parent="1">
          <mxGeometry x="160" y="1080" width="40" height="40" as="geometry" />
        </mxCell>
        <mxCell id="kAC32boEKr8LLjx1eOd2-619" value="" style="rounded=0;whiteSpace=wrap;html=1;fillColor=#000000;" vertex="1" parent="1">
          <mxGeometry x="200" y="1080" width="40" height="40" as="geometry" />
        </mxCell>
        <mxCell id="kAC32boEKr8LLjx1eOd2-620" value="" style="rounded=0;whiteSpace=wrap;html=1;fillColor=#000000;" vertex="1" parent="1">
          <mxGeometry x="240" y="1080" width="40" height="40" as="geometry" />
        </mxCell>
        <mxCell id="kAC32boEKr8LLjx1eOd2-621" value="SubCell" style="text;html=1;strokeColor=none;fillColor=none;align=center;verticalAlign=middle;whiteSpace=wrap;rounded=0;" vertex="1" parent="1">
          <mxGeometry x="310" y="1005" width="60" height="30" as="geometry" />
        </mxCell>
        <mxCell id="kAC32boEKr8LLjx1eOd2-622" value="" style="rounded=0;whiteSpace=wrap;html=1;" vertex="1" parent="1">
          <mxGeometry x="400" y="960" width="160" height="160" as="geometry" />
        </mxCell>
        <mxCell id="kAC32boEKr8LLjx1eOd2-623" value="" style="rounded=0;whiteSpace=wrap;html=1;fillColor=#FFFFFF;" vertex="1" parent="1">
          <mxGeometry x="400" y="960" width="40" height="40" as="geometry" />
        </mxCell>
        <mxCell id="kAC32boEKr8LLjx1eOd2-624" value="" style="rounded=0;whiteSpace=wrap;html=1;" vertex="1" parent="1">
          <mxGeometry x="440" y="960" width="40" height="40" as="geometry" />
        </mxCell>
        <mxCell id="kAC32boEKr8LLjx1eOd2-625" value="" style="rounded=0;whiteSpace=wrap;html=1;fillColor=#000000;" vertex="1" parent="1">
          <mxGeometry x="480" y="960" width="40" height="40" as="geometry" />
        </mxCell>
        <mxCell id="kAC32boEKr8LLjx1eOd2-626" value="" style="rounded=0;whiteSpace=wrap;html=1;fillColor=#000000;" vertex="1" parent="1">
          <mxGeometry x="520" y="960" width="40" height="40" as="geometry" />
        </mxCell>
        <mxCell id="kAC32boEKr8LLjx1eOd2-627" value="" style="rounded=0;whiteSpace=wrap;html=1;fillColor=#FFFFFF;" vertex="1" parent="1">
          <mxGeometry x="400" y="1000" width="40" height="40" as="geometry" />
        </mxCell>
        <mxCell id="kAC32boEKr8LLjx1eOd2-628" value="" style="rounded=0;whiteSpace=wrap;html=1;" vertex="1" parent="1">
          <mxGeometry x="440" y="1000" width="40" height="40" as="geometry" />
        </mxCell>
        <mxCell id="kAC32boEKr8LLjx1eOd2-629" value="" style="rounded=0;whiteSpace=wrap;html=1;fillColor=#FFFFFF;" vertex="1" parent="1">
          <mxGeometry x="480" y="1000" width="40" height="40" as="geometry" />
        </mxCell>
        <mxCell id="kAC32boEKr8LLjx1eOd2-630" value="" style="rounded=0;whiteSpace=wrap;html=1;fillColor=#000000;" vertex="1" parent="1">
          <mxGeometry x="520" y="1000" width="40" height="40" as="geometry" />
        </mxCell>
        <mxCell id="kAC32boEKr8LLjx1eOd2-631" value="" style="rounded=0;whiteSpace=wrap;html=1;fillColor=#FFFFFF;" vertex="1" parent="1">
          <mxGeometry x="400" y="1040" width="40" height="40" as="geometry" />
        </mxCell>
        <mxCell id="kAC32boEKr8LLjx1eOd2-632" value="" style="rounded=0;whiteSpace=wrap;html=1;" vertex="1" parent="1">
          <mxGeometry x="440" y="1040" width="40" height="40" as="geometry" />
        </mxCell>
        <mxCell id="kAC32boEKr8LLjx1eOd2-633" value="" style="rounded=0;whiteSpace=wrap;html=1;fillColor=#000000;" vertex="1" parent="1">
          <mxGeometry x="480" y="1040" width="40" height="40" as="geometry" />
        </mxCell>
        <mxCell id="kAC32boEKr8LLjx1eOd2-634" value="" style="rounded=0;whiteSpace=wrap;html=1;fillColor=#FFFFFF;" vertex="1" parent="1">
          <mxGeometry x="520" y="1040" width="40" height="40" as="geometry" />
        </mxCell>
        <mxCell id="kAC32boEKr8LLjx1eOd2-635" value="" style="rounded=0;whiteSpace=wrap;html=1;fillColor=#FFFFFF;" vertex="1" parent="1">
          <mxGeometry x="400" y="1080" width="40" height="40" as="geometry" />
        </mxCell>
        <mxCell id="kAC32boEKr8LLjx1eOd2-636" value="" style="rounded=0;whiteSpace=wrap;html=1;fillColor=#FFFFFF;" vertex="1" parent="1">
          <mxGeometry x="440" y="1080" width="40" height="40" as="geometry" />
        </mxCell>
        <mxCell id="kAC32boEKr8LLjx1eOd2-637" value="" style="rounded=0;whiteSpace=wrap;html=1;fillColor=#000000;" vertex="1" parent="1">
          <mxGeometry x="480" y="1080" width="40" height="40" as="geometry" />
        </mxCell>
        <mxCell id="kAC32boEKr8LLjx1eOd2-638" value="" style="rounded=0;whiteSpace=wrap;html=1;fillColor=#000000;" vertex="1" parent="1">
          <mxGeometry x="520" y="1080" width="40" height="40" as="geometry" />
        </mxCell>
        <mxCell id="kAC32boEKr8LLjx1eOd2-639" value="" style="endArrow=classic;html=1;rounded=0;exitX=1;exitY=0;exitDx=0;exitDy=0;entryX=0;entryY=0;entryDx=0;entryDy=0;" edge="1" parent="1" source="kAC32boEKr8LLjx1eOd2-634">
          <mxGeometry width="50" height="50" relative="1" as="geometry">
            <mxPoint x="620" y="1120" as="sourcePoint" />
            <mxPoint x="680" y="1040" as="targetPoint" />
          </mxGeometry>
        </mxCell>
        <mxCell id="kAC32boEKr8LLjx1eOd2-701" style="edgeStyle=orthogonalEdgeStyle;rounded=0;orthogonalLoop=1;jettySize=auto;html=1;exitX=1;exitY=0.5;exitDx=0;exitDy=0;entryX=0;entryY=0.5;entryDx=0;entryDy=0;" edge="1" parent="1" source="kAC32boEKr8LLjx1eOd2-660" target="kAC32boEKr8LLjx1eOd2-700">
          <mxGeometry relative="1" as="geometry" />
        </mxCell>
        <mxCell id="kAC32boEKr8LLjx1eOd2-660" value="" style="ellipse;whiteSpace=wrap;html=1;" vertex="1" parent="1">
          <mxGeometry x="680" y="1018.75" width="42.5" height="42.5" as="geometry" />
        </mxCell>
        <mxCell id="kAC32boEKr8LLjx1eOd2-661" value="" style="endArrow=none;html=1;rounded=0;entryX=0.5;entryY=0;entryDx=0;entryDy=0;exitX=0.5;exitY=1;exitDx=0;exitDy=0;" edge="1" parent="1" source="kAC32boEKr8LLjx1eOd2-660" target="kAC32boEKr8LLjx1eOd2-660">
          <mxGeometry width="50" height="50" relative="1" as="geometry">
            <mxPoint x="659" y="1100" as="sourcePoint" />
            <mxPoint x="709" y="1050" as="targetPoint" />
          </mxGeometry>
        </mxCell>
        <mxCell id="kAC32boEKr8LLjx1eOd2-662" value="" style="endArrow=none;html=1;rounded=0;entryX=1;entryY=0.5;entryDx=0;entryDy=0;exitX=0;exitY=0.5;exitDx=0;exitDy=0;" edge="1" parent="1" source="kAC32boEKr8LLjx1eOd2-660" target="kAC32boEKr8LLjx1eOd2-660">
          <mxGeometry width="50" height="50" relative="1" as="geometry">
            <mxPoint x="659" y="1100" as="sourcePoint" />
            <mxPoint x="709" y="1050" as="targetPoint" />
          </mxGeometry>
        </mxCell>
        <mxCell id="kAC32boEKr8LLjx1eOd2-663" value="" style="endArrow=classic;html=1;rounded=0;entryX=0.5;entryY=0;entryDx=0;entryDy=0;" edge="1" parent="1" target="kAC32boEKr8LLjx1eOd2-660">
          <mxGeometry width="50" height="50" relative="1" as="geometry">
            <mxPoint x="701" y="970" as="sourcePoint" />
            <mxPoint x="871.25" y="1138.75" as="targetPoint" />
          </mxGeometry>
        </mxCell>
        <mxCell id="kAC32boEKr8LLjx1eOd2-664" value="&lt;div style=&quot;font-size: 16px;&quot;&gt;\(K&#39;_4\)&lt;/div&gt;" style="text;html=1;strokeColor=none;fillColor=none;align=center;verticalAlign=middle;whiteSpace=wrap;rounded=0;fontSize=16;fontColor=#FFFFFF;" vertex="1" parent="1">
          <mxGeometry x="671.25" y="930" width="60" height="30" as="geometry" />
        </mxCell>
        <mxCell id="kAC32boEKr8LLjx1eOd2-665" value="" style="endArrow=classic;html=1;rounded=0;exitX=1;exitY=0;exitDx=0;exitDy=0;entryX=0;entryY=0;entryDx=0;entryDy=0;" edge="1" parent="1" source="kAC32boEKr8LLjx1eOd2-616" target="kAC32boEKr8LLjx1eOd2-631">
          <mxGeometry width="50" height="50" relative="1" as="geometry">
            <mxPoint x="440" y="1080" as="sourcePoint" />
            <mxPoint x="490" y="1030" as="targetPoint" />
          </mxGeometry>
        </mxCell>
        <mxCell id="kAC32boEKr8LLjx1eOd2-688" value="Known Differences" style="text;html=1;strokeColor=none;fillColor=none;align=center;verticalAlign=middle;whiteSpace=wrap;rounded=0;fontColor=#557542;fontSize=36;" vertex="1" parent="1">
          <mxGeometry x="10" y="40" width="280" height="110" as="geometry" />
        </mxCell>
        <mxCell id="kAC32boEKr8LLjx1eOd2-691" value="" style="endArrow=classic;html=1;rounded=0;entryX=0;entryY=1;entryDx=0;entryDy=0;" edge="1" parent="1" target="kAC32boEKr8LLjx1eOd2-161">
          <mxGeometry width="50" height="50" relative="1" as="geometry">
            <mxPoint x="-160" y="400" as="sourcePoint" />
            <mxPoint x="-60" y="350" as="targetPoint" />
          </mxGeometry>
        </mxCell>
        <mxCell id="kAC32boEKr8LLjx1eOd2-692" value="" style="ellipse;whiteSpace=wrap;html=1;" vertex="1" parent="1">
          <mxGeometry x="-181.25" y="400" width="42.5" height="42.5" as="geometry" />
        </mxCell>
        <mxCell id="kAC32boEKr8LLjx1eOd2-693" value="" style="endArrow=none;html=1;rounded=0;entryX=0.5;entryY=0;entryDx=0;entryDy=0;exitX=0.5;exitY=1;exitDx=0;exitDy=0;" edge="1" parent="1" source="kAC32boEKr8LLjx1eOd2-692" target="kAC32boEKr8LLjx1eOd2-692">
          <mxGeometry width="50" height="50" relative="1" as="geometry">
            <mxPoint x="-202.25" y="481.25" as="sourcePoint" />
            <mxPoint x="-152.25" y="431.25" as="targetPoint" />
          </mxGeometry>
        </mxCell>
        <mxCell id="kAC32boEKr8LLjx1eOd2-694" value="" style="endArrow=none;html=1;rounded=0;entryX=1;entryY=0.5;entryDx=0;entryDy=0;exitX=0;exitY=0.5;exitDx=0;exitDy=0;" edge="1" parent="1" source="kAC32boEKr8LLjx1eOd2-692" target="kAC32boEKr8LLjx1eOd2-692">
          <mxGeometry width="50" height="50" relative="1" as="geometry">
            <mxPoint x="-202.25" y="481.25" as="sourcePoint" />
            <mxPoint x="-152.25" y="431.25" as="targetPoint" />
          </mxGeometry>
        </mxCell>
        <mxCell id="kAC32boEKr8LLjx1eOd2-696" value="&lt;div style=&quot;font-size: 16px;&quot;&gt;\(K_0\)&lt;/div&gt;" style="text;html=1;strokeColor=none;fillColor=none;align=center;verticalAlign=middle;whiteSpace=wrap;rounded=0;fontSize=16;fontColor=#FFFFFF;" vertex="1" parent="1">
          <mxGeometry x="-340" y="406.25" width="60" height="30" as="geometry" />
        </mxCell>
        <mxCell id="kAC32boEKr8LLjx1eOd2-697" value="" style="endArrow=classic;html=1;rounded=0;exitX=1;exitY=0.5;exitDx=0;exitDy=0;entryX=0;entryY=0.5;entryDx=0;entryDy=0;" edge="1" parent="1" source="kAC32boEKr8LLjx1eOd2-696" target="kAC32boEKr8LLjx1eOd2-692">
          <mxGeometry width="50" height="50" relative="1" as="geometry">
            <mxPoint x="140" y="540" as="sourcePoint" />
            <mxPoint x="190" y="490" as="targetPoint" />
          </mxGeometry>
        </mxCell>
        <mxCell id="kAC32boEKr8LLjx1eOd2-698" value="" style="endArrow=classic;html=1;rounded=0;" edge="1" parent="1">
          <mxGeometry width="50" height="50" relative="1" as="geometry">
            <mxPoint x="-160" y="520" as="sourcePoint" />
            <mxPoint x="-160" y="440" as="targetPoint" />
          </mxGeometry>
        </mxCell>
        <mxCell id="kAC32boEKr8LLjx1eOd2-699" value="&lt;font style=&quot;font-size: 64px;&quot;&gt;\(P\)&lt;/font&gt;" style="text;html=1;strokeColor=none;fillColor=none;align=center;verticalAlign=middle;whiteSpace=wrap;rounded=0;fontColor=#FFFFFF;" vertex="1" parent="1">
          <mxGeometry x="-220" y="520" width="120" height="100" as="geometry" />
        </mxCell>
        <mxCell id="kAC32boEKr8LLjx1eOd2-700" value="&lt;font style=&quot;font-size: 64px;&quot;&gt;\(C\)&lt;/font&gt;" style="text;html=1;strokeColor=none;fillColor=none;align=center;verticalAlign=middle;whiteSpace=wrap;rounded=0;fontColor=#FFFFFF;" vertex="1" parent="1">
          <mxGeometry x="840" y="990" width="120" height="100" as="geometry" />
        </mxCell>
      </root>
    </mxGraphModel>
  </diagram>
</mxfile>
